REM DIRINDEX 1\2,1\4,1\5,1\6,1\7,1\3\8,1\3\9,1\3\10
REM DIRNAME folder01,folder02,folder03,folder04,folder05,folder06,folder07,folder08,folder09,folder10
TITLE ""
FILE "DB4500_5th_1A_13.mp3" MP3
  TRACK 01 AUDIO
    TITLE "8:cjc113_0541"
    INDEX 01 00:00:00
  TRACK 02 AUDIO
    TITLE "0:"
    INDEX 01 00:01:13
  TRACK 03 AUDIO
    TITLE "9:cjc113_0542"
    INDEX 01 00:01:36
  TRACK 04 AUDIO
    TITLE "0:"
    INDEX 01 00:03:15
  TRACK 05 AUDIO
    TITLE "10:cjc113_0543"
    INDEX 01 00:03:33
  TRACK 06 AUDIO
    TITLE "0:"
    INDEX 01 00:08:05
  TRACK 07 AUDIO
    TITLE "8:cjc113_0544"
    INDEX 01 00:08:54
  TRACK 08 AUDIO
    TITLE "0:"
    INDEX 01 00:09:63
  TRACK 09 AUDIO
    TITLE "9:cjc113_0545"
    INDEX 01 00:10:10
  TRACK 10 AUDIO
    TITLE "0:"
    INDEX 01 00:11:29
  TRACK 11 AUDIO
    TITLE "10:cjc113_0546"
    INDEX 01 00:11:48
  TRACK 12 AUDIO
    TITLE "0:"
    INDEX 01 00:14:29
  TRACK 13 AUDIO
    TITLE "8:cjc113_0547"
    INDEX 01 00:15:01
  TRACK 14 AUDIO
    TITLE "0:"
    INDEX 01 00:16:26
  TRACK 15 AUDIO
    TITLE "9:cjc113_0548"
    INDEX 01 00:16:48
  TRACK 16 AUDIO
    TITLE "0:"
    INDEX 01 00:17:61
  TRACK 17 AUDIO
    TITLE "10:cjc113_0549"
    INDEX 01 00:18:11
  TRACK 18 AUDIO
    TITLE "0:"
    INDEX 01 00:22:11
  TRACK 19 AUDIO
    TITLE "8:cjc113_0550"
    INDEX 01 00:22:58
  TRACK 20 AUDIO
    TITLE "0:"
    INDEX 01 00:23:63
  TRACK 21 AUDIO
    TITLE "9:cjc113_0551"
    INDEX 01 00:24:10
  TRACK 22 AUDIO
    TITLE "0:"
    INDEX 01 00:25:37
  TRACK 23 AUDIO
    TITLE "10:cjc113_0552"
    INDEX 01 00:25:56
  TRACK 24 AUDIO
    TITLE "0:"
    INDEX 01 00:28:17
  TRACK 25 AUDIO
    TITLE "8:cjc113_0553"
    INDEX 01 00:28:62
  TRACK 26 AUDIO
    TITLE "0:"
    INDEX 01 00:29:72
  TRACK 27 AUDIO
    TITLE "9:cjc113_0554"
    INDEX 01 00:30:20
  TRACK 28 AUDIO
    TITLE "0:"
    INDEX 01 00:31:27
  TRACK 29 AUDIO
    TITLE "10:cjc113_0555"
    INDEX 01 00:31:51
  TRACK 30 AUDIO
    TITLE "0:"
    INDEX 01 00:34:59
  TRACK 31 AUDIO
    TITLE "8:cjc113_0556"
    INDEX 01 00:35:31
  TRACK 32 AUDIO
    TITLE "0:"
    INDEX 01 00:36:44
  TRACK 33 AUDIO
    TITLE "9:cjc113_0557"
    INDEX 01 00:36:66
  TRACK 34 AUDIO
    TITLE "0:"
    INDEX 01 00:38:18
  TRACK 35 AUDIO
    TITLE "10:cjc113_0558"
    INDEX 01 00:38:37
  TRACK 36 AUDIO
    TITLE "0:"
    INDEX 01 00:41:47
  TRACK 37 AUDIO
    TITLE "8:cjc113_0559"
    INDEX 01 00:42:18
  TRACK 38 AUDIO
    TITLE "0:"
    INDEX 01 00:43:39
  TRACK 39 AUDIO
    TITLE "9:cjc113_0560"
    INDEX 01 00:43:60
  TRACK 40 AUDIO
    TITLE "0:"
    INDEX 01 00:45:16
  TRACK 41 AUDIO
    TITLE "10:cjc113_0561"
    INDEX 01 00:45:37
  TRACK 42 AUDIO
    TITLE "0:"
    INDEX 01 00:47:44
  TRACK 43 AUDIO
    TITLE "8:cjc113_0562"
    INDEX 01 00:48:14
  TRACK 44 AUDIO
    TITLE "0:"
    INDEX 01 00:49:51
  TRACK 45 AUDIO
    TITLE "9:cjc113_0563"
    INDEX 01 00:49:69
  TRACK 46 AUDIO
    TITLE "0:"
    INDEX 01 00:51:26
  TRACK 47 AUDIO
    TITLE "10:cjc113_0564"
    INDEX 01 00:51:48
  TRACK 48 AUDIO
    TITLE "0:"
    INDEX 01 00:55:38
  TRACK 49 AUDIO
    TITLE "8:cjc113_0565"
    INDEX 01 00:56:06
  TRACK 50 AUDIO
    TITLE "0:"
    INDEX 01 00:57:19
  TRACK 51 AUDIO
    TITLE "9:cjc113_0566"
    INDEX 01 00:57:45
  TRACK 52 AUDIO
    TITLE "0:"
    INDEX 01 00:58:52
  TRACK 53 AUDIO
    TITLE "10:cjc113_0567"
    INDEX 01 00:58:73
  TRACK 54 AUDIO
    TITLE "0:"
    INDEX 01 01:03:08
  TRACK 55 AUDIO
    TITLE "8:cjc113_0568"
    INDEX 01 01:03:49
  TRACK 56 AUDIO
    TITLE "0:"
    INDEX 01 01:04:54
  TRACK 57 AUDIO
    TITLE "9:cjc113_0569"
    INDEX 01 01:05:09
  TRACK 58 AUDIO
    TITLE "0:"
    INDEX 01 01:06:16
  TRACK 59 AUDIO
    TITLE "10:cjc113_0570"
    INDEX 01 01:06:38
  TRACK 60 AUDIO
    TITLE "0:"
    INDEX 01 01:09:18
  TRACK 61 AUDIO
    TITLE "8:cjc113_0571"
    INDEX 01 01:09:65
  TRACK 62 AUDIO
    TITLE "0:"
    INDEX 01 01:10:73
  TRACK 63 AUDIO
    TITLE "9:cjc113_0572"
    INDEX 01 01:11:21
  TRACK 64 AUDIO
    TITLE "0:"
    INDEX 01 01:12:52
  TRACK 65 AUDIO
    TITLE "10:cjc113_0573"
    INDEX 01 01:13:00
  TRACK 66 AUDIO
    TITLE "0:"
    INDEX 01 01:15:72
  TRACK 67 AUDIO
    TITLE "10:cjc113_0574"
    INDEX 01 01:16:30
  TRACK 68 AUDIO
    TITLE "0:"
    INDEX 01 01:18:54
  TRACK 69 AUDIO
    TITLE "8:cjc113_0575"
    INDEX 01 01:19:28
  TRACK 70 AUDIO
    TITLE "0:"
    INDEX 01 01:20:32
  TRACK 71 AUDIO
    TITLE "9:cjc113_0576"
    INDEX 01 01:20:55
  TRACK 72 AUDIO
    TITLE "0:"
    INDEX 01 01:22:17
  TRACK 73 AUDIO
    TITLE "10:cjc113_0577"
    INDEX 01 01:22:41
  TRACK 74 AUDIO
    TITLE "0:"
    INDEX 01 01:25:31
